<?xml version="1.0" encoding="UTF-8"?>
<svg id="Camada_2" data-name="Camada 2" xmlns="http://www.w3.org/2000/svg" viewBox="0 0 176.05 197.67">
  <defs>
    <style>
      .cls-1 {
        fill: #bf1818;
        stroke-width: 0px;
      }
    </style>
  </defs>
  <g id="Layer_1" data-name="Layer 1">
    <path class="cls-1" d="M60.93,55.3l25.09,53.6,23.68-54.23,19.92-.26,1.42,108.17-16.48.22-.98-74.86-21.87,48.2-10.82.14-22.95-47.61.98,74.86-16.66.22-1.42-108.17,20.09-.26Z"/>
    <polygon class="cls-1" points="162.5 57.3 162.5 186.71 11.11 186.83 10.85 28.79 138.95 28.69 138.95 17.86 0 17.97 .3 197.67 173.33 197.53 173.33 57.3 162.5 57.3"/>
    <path class="cls-1" d="M148.99,18.77l12.8-.17c2.79-.04,5.43-.72,5.37-5.22v-.57c-.06-4.29-3.36-4.96-8.08-4.9-4.5.06-11.5.87-11.5.87l-.51-.49-.1-7.36S155.9.08,161.84,0c5.43-.07,13.74.54,13.85,9.26l.07,5.43c.05,4-2.06,6.39-4.83,7.79,3.16,1.03,4.98,3.23,5.03,7.52l.09,6.86c.11,8.72-8.89,9.56-14.32,9.63-5.93.08-14.17-.53-14.17-.53l-.1-7.36.49-.51s6.3.63,10.81.57c4.72-.06,8.71-.83,8.66-5.12l-.03-2.07c-.06-4.5-2.78-5.04-5.64-5l-12.66.17-.1-7.87Z"/>
  </g>
</svg>