<svg width="20" height="21" viewBox="0 0 20 21" fill="none" xmlns="http://www.w3.org/2000/svg">
<g id="mail-01">
<path id="Icon" d="M1.66797 6.33301L8.47207 11.0959C9.02304 11.4816 9.29853 11.6744 9.59819 11.7491C9.86288 11.8151 10.1397 11.8151 10.4044 11.7491C10.7041 11.6744 10.9796 11.4816 11.5305 11.0959L18.3346 6.33301M5.66797 17.1663H14.3346C15.7348 17.1663 16.4348 17.1663 16.9696 16.8939C17.44 16.6542 17.8225 16.2717 18.0621 15.8013C18.3346 15.2665 18.3346 14.5665 18.3346 13.1663V7.83301C18.3346 6.43288 18.3346 5.73281 18.0621 5.19803C17.8225 4.72763 17.44 4.34517 16.9696 4.10549C16.4348 3.83301 15.7348 3.83301 14.3346 3.83301H5.66797C4.26784 3.83301 3.56777 3.83301 3.03299 4.10549C2.56259 4.34517 2.18014 4.72763 1.94045 5.19803C1.66797 5.73281 1.66797 6.43288 1.66797 7.83301V13.1663C1.66797 14.5665 1.66797 15.2665 1.94045 15.8013C2.18014 16.2717 2.56259 16.6542 3.03299 16.8939C3.56777 17.1663 4.26784 17.1663 5.66797 17.1663Z" stroke="white" stroke-width="2" stroke-linecap="round" stroke-linejoin="round"/>
</g>
</svg>
