<svg width="20" height="21" viewBox="0 0 20 21" fill="none" xmlns="http://www.w3.org/2000/svg">
<g id="marker-pin-04">
<path id="Icon" d="M4.16797 12.4056C2.62517 13.0862 1.66797 14.0346 1.66797 15.0837C1.66797 17.1547 5.39893 18.8337 10.0013 18.8337C14.6037 18.8337 18.3346 17.1547 18.3346 15.0837C18.3346 14.0346 17.3774 13.0862 15.8346 12.4056M15.0013 7.16699C15.0013 10.5534 11.2513 12.167 10.0013 14.667C8.7513 12.167 5.0013 10.5534 5.0013 7.16699C5.0013 4.40557 7.23988 2.16699 10.0013 2.16699C12.7627 2.16699 15.0013 4.40557 15.0013 7.16699ZM10.8346 7.16699C10.8346 7.62723 10.4615 8.00033 10.0013 8.00033C9.54106 8.00033 9.16797 7.62723 9.16797 7.16699C9.16797 6.70675 9.54106 6.33366 10.0013 6.33366C10.4615 6.33366 10.8346 6.70675 10.8346 7.16699Z" stroke="white" stroke-width="2" stroke-linecap="round" stroke-linejoin="round"/>
</g>
</svg>
