<?xml version="1.0" encoding="UTF-8"?>
<svg id="Camada_2" data-name="Camada 2" xmlns="http://www.w3.org/2000/svg" viewBox="0 0 681.6 197.67">
  <defs>
    <style>
      .cls-1 {
        fill: #bf1818;
      }

      .cls-1, .cls-2, .cls-3 {
        stroke-width: 0px;
      }

      .cls-2 {
        fill: #010101;
      }

      .cls-3 {
        fill: #fff;
      }
    </style>
  </defs>
  <g id="Layer_1" data-name="Layer 1">
    <g>
      <rect class="cls-1" x="197.01" y="17.58" width="484.59" height="179.82"/>
      <g>
        <path class="cls-3" d="M282.48,52.28v89.41h-17V52.28h-27.33v-14.9h71.67v14.9h-27.34Z"/>
        <path class="cls-3" d="M365.71,80.59h40.3v14.74h-40.3v31.62h50.81v14.74h-67.81V37.38h67.81v14.9h-50.81v28.31Z"/>
        <path class="cls-3" d="M527.44,52.28s-17.17-1.66-28.21-1.66-19.63,1.66-19.63,13.58v50.83c0,11.92,8.59,13.58,19.63,13.58s28.21-1.66,28.21-1.66l1.23,1.16v13.58s-20.15,1.66-34.69,1.66c-13.32,0-31.37-3.31-31.37-21.86v-63.91c0-18.54,18.05-21.86,31.37-21.86,14.54,0,34.69,1.66,34.69,1.66v13.74l-1.23,1.16Z"/>
        <path class="cls-3" d="M588.25,80.59h37.5v-43.21h16.82v104.31h-16.82v-46.36h-37.5v46.36h-17V37.38h17v43.21Z"/>
      </g>
      <path class="cls-1" d="M60.93,55.3l25.09,53.6,23.68-54.23,19.92-.26,1.42,108.17-16.48.22-.98-74.86-21.87,48.2-10.82.14-22.95-47.61.98,74.86-16.66.22-1.42-108.17,20.09-.26Z"/>
      <polygon class="cls-1" points="162.5 57.3 162.5 186.71 11.11 186.83 10.85 28.79 138.95 28.69 138.95 17.86 0 17.97 .3 197.67 173.33 197.53 173.33 57.3 162.5 57.3"/>
      <path class="cls-1" d="M148.99,18.77l12.8-.17c2.79-.04,5.43-.72,5.37-5.22v-.57c-.06-4.29-3.36-4.96-8.08-4.9-4.5.06-11.5.87-11.5.87l-.51-.49-.1-7.36S155.9.08,161.84,0c5.43-.07,13.74.54,13.85,9.26l.07,5.43c.05,4-2.06,6.39-4.83,7.79,3.16,1.03,4.98,3.23,5.03,7.52l.09,6.86c.11,8.72-8.89,9.56-14.32,9.63-5.93.08-14.17-.53-14.17-.53l-.1-7.36.49-.51s6.3.63,10.81.57c4.72-.06,8.71-.83,8.66-5.12l-.03-2.07c-.06-4.5-2.78-5.04-5.64-5l-12.66.17-.1-7.87Z"/>
      <rect class="cls-3" x="203.51" y="155.56" width="471.59" height="33.22"/>
      <g>
        <path class="cls-2" d="M239.09,166.08l3.21,7.02,3.2-7.02h1.88v12.74h-1.48v-10.01l-3.01,6.51h-1.19l-3.01-6.51v10.01h-1.48v-12.74h1.88Z"/>
        <path class="cls-2" d="M257.08,178.82h-1.34l-.14-.14.04-1.07h-.08s-.81,1.42-2.85,1.42c-1.48,0-2.77-.53-2.77-2.79s1.72-2.93,3.38-2.93h2.29v-1.29c0-1.17-.93-1.54-2.06-1.54-1.27,0-2.69.2-2.69.2l-.14-.14v-1.21s1.42-.2,3.09-.2c1.54,0,3.28.4,3.28,2.67v7.04ZM255.61,174.57h-1.72c-1.46,0-2.47.2-2.47,1.6,0,1.25.83,1.52,1.76,1.52.67,0,1.5-.14,2.43-1.21v-1.9Z"/>
        <path class="cls-2" d="M261.53,167.64h-1.48v-1.74h1.48v1.74ZM261.53,169.32v9.5h-1.48v-9.5h1.48Z"/>
        <path class="cls-2" d="M271.64,178.82h-1.48v-6.83c0-1.25-.73-1.52-1.68-1.52-.69,0-1.5.18-2.51,1.31v7.04h-1.48v-9.5h1.33l.14.14-.04,1.07h.08s.81-1.42,2.85-1.42c1.54,0,2.77.55,2.77,2.81v6.9Z"/>
        <path class="cls-2" d="M274.82,170.61h-1.01v-1.29h1.01v-2.02h1.48v2.02h2.37v1.29h-2.37v5.72c0,1.01.51,1.35,1.25,1.35.67,0,1.17-.1,1.17-.1l.14.14v1.11s-.69.18-1.56.18c-1.52,0-2.49-.87-2.49-2.69v-5.72Z"/>
        <path class="cls-2" d="M287.44,174.57h-5.28v1.44c0,1.46,1.09,1.64,2.22,1.64,1.27,0,2.55-.2,2.55-.2l.14.14v1.23s-1.34.2-3.01.2-3.38-.47-3.38-2.73v-4.29c0-2.2,1.78-2.89,3.58-2.89s3.56.55,3.56,2.89c0,1.07-.14,2.12-.18,2.37l-.2.2ZM282.16,172.15v1.15h4.04c.02-.12.1-.69.1-1.35-.02-1.17-.97-1.48-2.04-1.48s-2.1.28-2.1,1.68Z"/>
        <path class="cls-2" d="M297.52,178.82h-1.48v-6.83c0-1.25-.73-1.52-1.68-1.52-.69,0-1.5.18-2.51,1.31v7.04h-1.48v-9.5h1.33l.14.14-.04,1.07h.08s.81-1.42,2.85-1.42c1.54,0,2.77.55,2.77,2.81v6.9Z"/>
        <path class="cls-2" d="M307.23,178.82h-1.34l-.14-.14.04-1.07h-.08s-.81,1.42-2.85,1.42c-1.48,0-2.77-.53-2.77-2.79s1.72-2.93,3.38-2.93h2.29v-1.29c0-1.17-.93-1.54-2.06-1.54-1.27,0-2.69.2-2.69.2l-.14-.14v-1.21s1.42-.2,3.09-.2c1.54,0,3.28.4,3.28,2.67v7.04ZM305.76,174.57h-1.72c-1.46,0-2.47.2-2.47,1.6,0,1.25.83,1.52,1.76,1.52.67,0,1.5-.14,2.43-1.21v-1.9Z"/>
        <path class="cls-2" d="M317.34,178.82h-1.48v-6.83c0-1.25-.73-1.52-1.68-1.52-.69,0-1.5.18-2.51,1.31v7.04h-1.48v-9.5h1.33l.14.14-.04,1.07h.08s.81-1.42,2.85-1.42c1.54,0,2.77.55,2.77,2.81v6.9Z"/>
        <path class="cls-2" d="M326.3,170.71s-1.21-.2-2.49-.2c-1.13,0-2.22.18-2.22,1.64v3.86c0,1.46,1.09,1.64,2.22,1.64,1.27,0,2.49-.2,2.49-.2l.14.14v1.23s-1.27.2-2.95.2-3.38-.47-3.38-2.73v-4.43c0-2.26,1.76-2.75,3.38-2.75s2.95.2,2.95.2v1.25l-.14.14Z"/>
        <path class="cls-2" d="M335.36,174.57h-5.28v1.44c0,1.46,1.09,1.64,2.22,1.64,1.27,0,2.55-.2,2.55-.2l.14.14v1.23s-1.34.2-3.01.2-3.38-.47-3.38-2.73v-4.29c0-2.2,1.78-2.89,3.58-2.89s3.56.55,3.56,2.89c0,1.07-.14,2.12-.18,2.37l-.2.2ZM330.08,172.15v1.15h4.04c.02-.12.1-.69.1-1.35-.02-1.17-.97-1.48-2.04-1.48s-2.1.28-2.1,1.68Z"/>
        <path class="cls-2" d="M349.7,163.05v18.81h-1.27v-18.81h1.27Z"/>
        <path class="cls-2" d="M364.66,166.08l3.21,7.02,3.2-7.02h1.88v12.74h-1.48v-10.01l-3.01,6.51h-1.19l-3.01-6.51v10.01h-1.48v-12.74h1.88Z"/>
        <path class="cls-2" d="M382.66,178.82h-1.34l-.14-.14.04-1.07h-.08s-.81,1.42-2.85,1.42c-1.48,0-2.77-.53-2.77-2.79s1.72-2.93,3.38-2.93h2.29v-1.29c0-1.17-.93-1.54-2.06-1.54-1.27,0-2.69.2-2.69.2l-.14-.14v-1.21s1.42-.2,3.09-.2c1.54,0,3.28.4,3.28,2.67v7.04ZM381.18,174.57h-1.72c-1.46,0-2.47.2-2.47,1.6,0,1.25.83,1.52,1.76,1.52.67,0,1.5-.14,2.43-1.21v-1.9Z"/>
        <path class="cls-2" d="M392.77,178.82h-1.48v-6.83c0-1.25-.73-1.52-1.68-1.52-.69,0-1.5.18-2.51,1.31v7.04h-1.48v-9.5h1.33l.14.14-.04,1.07h.08s.81-1.42,2.85-1.42c1.54,0,2.77.55,2.77,2.81v6.9Z"/>
        <path class="cls-2" d="M402.47,178.82h-1.34l-.14-.14.04-1.07h-.08s-.81,1.42-2.85,1.42c-1.48,0-2.77-.53-2.77-2.79s1.72-2.93,3.38-2.93h2.29v-1.29c0-1.17-.93-1.54-2.06-1.54-1.27,0-2.69.2-2.69.2l-.14-.14v-1.21s1.42-.2,3.09-.2c1.54,0,3.28.4,3.28,2.67v7.04ZM401,174.57h-1.72c-1.46,0-2.47.2-2.47,1.6,0,1.25.83,1.52,1.76,1.52.67,0,1.5-.14,2.43-1.21v-1.9Z"/>
        <path class="cls-2" d="M412.18,173.54c0,2.35-1.76,2.85-3.56,2.85-.26,0-.51,0-.75-.02-.2,1.01.04,1.31.77,1.31,2.33,0,3.68.1,3.68,2.35s-1.92,2.43-3.64,2.43-3.44-.2-3.44-.2v-1.17l.14-.14s1.76.2,3.03.2c1.44,0,2.43-.14,2.43-1.11,0-1.19-1.56-1.09-2.77-1.09-1.82,0-1.72-1.25-1.29-2.83-1.01-.36-1.74-1.13-1.74-2.57v-1.56c0-2.2,1.78-2.87,3.58-2.87.87,0,1.76.12,2.41.55l2.37-.47.14.14v1.13h-1.7c.2.38.34.89.34,1.52v1.56ZM410.7,172.13c0-1.25-.89-1.66-2.08-1.66s-2.1.32-2.1,1.5v1.52c0,1.25.91,1.58,2.1,1.58,1.11,0,2.08-.32,2.08-1.5v-1.44Z"/>
        <path class="cls-2" d="M421.91,174.57h-5.28v1.44c0,1.46,1.09,1.64,2.22,1.64,1.27,0,2.55-.2,2.55-.2l.14.14v1.23s-1.34.2-3.01.2-3.38-.47-3.38-2.73v-4.29c0-2.2,1.78-2.89,3.58-2.89s3.56.55,3.56,2.89c0,1.07-.14,2.12-.18,2.37l-.2.2ZM416.63,172.15v1.15h4.04c.02-.12.1-.69.1-1.35-.02-1.17-.97-1.48-2.04-1.48s-2.1.28-2.1,1.68Z"/>
        <path class="cls-2" d="M431.99,178.82h-1.48v-6.83c0-1.19-.73-1.52-1.64-1.52-.85,0-1.44.22-2.55,1.31v7.04h-1.48v-9.5h1.33l.14.14-.04,1.07h.08s.81-1.42,2.85-1.42c1.19,0,2.22.34,2.61,1.58.22-.32,1.11-1.58,3.07-1.58,1.52,0,2.75.55,2.75,2.81v6.9h-1.48v-6.83c0-1.13-.61-1.52-1.46-1.52-1.01,0-1.52.18-2.73,1.31v7.04Z"/>
        <path class="cls-2" d="M447.18,174.57h-5.28v1.44c0,1.46,1.09,1.64,2.22,1.64,1.27,0,2.55-.2,2.55-.2l.14.14v1.23s-1.34.2-3.01.2-3.38-.47-3.38-2.73v-4.29c0-2.2,1.78-2.89,3.58-2.89s3.56.55,3.56,2.89c0,1.07-.14,2.12-.18,2.37l-.2.2ZM441.9,172.15v1.15h4.04c.02-.12.1-.69.1-1.35-.02-1.17-.97-1.48-2.04-1.48s-2.1.28-2.1,1.68Z"/>
        <path class="cls-2" d="M457.27,178.82h-1.48v-6.83c0-1.25-.73-1.52-1.68-1.52-.69,0-1.5.18-2.51,1.31v7.04h-1.48v-9.5h1.33l.14.14-.04,1.07h.08s.81-1.42,2.85-1.42c1.54,0,2.77.55,2.77,2.81v6.9Z"/>
        <path class="cls-2" d="M460.45,170.61h-1.01v-1.29h1.01v-2.02h1.48v2.02h2.37v1.29h-2.37v5.72c0,1.01.51,1.35,1.25,1.35.67,0,1.17-.1,1.17-.1l.14.14v1.11s-.69.18-1.56.18c-1.52,0-2.49-.87-2.49-2.69v-5.72Z"/>
        <path class="cls-2" d="M478.3,163.05v18.81h-1.27v-18.81h1.27Z"/>
        <path class="cls-2" d="M493.27,166.08l3.21,7.02,3.2-7.02h1.88v12.74h-1.48v-10.01l-3.01,6.51h-1.19l-3.01-6.51v10.01h-1.48v-12.74h1.88Z"/>
        <path class="cls-2" d="M511.08,174.57h-5.28v1.44c0,1.46,1.09,1.64,2.22,1.64,1.27,0,2.55-.2,2.55-.2l.14.14v1.23s-1.34.2-3.01.2-3.38-.47-3.38-2.73v-4.29c0-2.2,1.78-2.89,3.58-2.89s3.56.55,3.56,2.89c0,1.07-.14,2.12-.18,2.37l-.2.2ZM505.8,172.15v1.15h4.04c.02-.12.1-.69.1-1.35-.02-1.17-.97-1.48-2.04-1.48s-2.1.28-2.1,1.68Z"/>
        <path class="cls-2" d="M520.87,178.82h-1.33l-.14-.14.04-1.07h-.08s-.81,1.42-2.85,1.42c-1.54,0-2.67-.53-2.67-2.79v-4.25c0-2.26,1.78-2.87,3.4-2.87.79,0,1.56.06,2.16.1v-3.74h1.48v13.35ZM519.39,170.59c-.59-.06-1.48-.08-2.1-.08-1.01.04-1.98.36-1.98,1.7v3.96c-.02,1.23.67,1.52,1.6,1.52.67,0,1.5-.18,2.49-1.31v-5.78Z"/>
        <path class="cls-2" d="M525.31,167.64h-1.48v-1.74h1.48v1.74ZM525.31,169.32v9.5h-1.48v-9.5h1.48Z"/>
        <path class="cls-2" d="M534.27,170.71s-1.21-.2-2.49-.2c-1.13,0-2.22.18-2.22,1.64v3.86c0,1.46,1.09,1.64,2.22,1.64,1.27,0,2.49-.2,2.49-.2l.14.14v1.23s-1.27.2-2.95.2-3.38-.47-3.38-2.73v-4.43c0-2.26,1.76-2.75,3.38-2.75s2.95.2,2.95.2v1.25l-.14.14Z"/>
        <path class="cls-2" d="M543.51,178.82h-1.34l-.14-.14.04-1.07h-.08s-.81,1.42-2.85,1.42c-1.48,0-2.77-.53-2.77-2.79s1.72-2.93,3.38-2.93h2.29v-1.29c0-1.17-.93-1.54-2.06-1.54-1.27,0-2.69.2-2.69.2l-.14-.14v-1.21s1.42-.2,3.09-.2c1.54,0,3.28.4,3.28,2.67v7.04ZM542.04,174.57h-1.72c-1.46,0-2.47.2-2.47,1.6,0,1.25.83,1.52,1.76,1.52.67,0,1.5-.14,2.43-1.21v-1.9Z"/>
        <path class="cls-2" d="M547.96,165.48v13.35h-1.48v-13.35h1.48Z"/>
        <path class="cls-2" d="M556.19,170.61h-1.01v-1.29h1.01v-2.02h1.48v2.02h2.37v1.29h-2.37v5.72c0,1.01.51,1.35,1.25,1.35.67,0,1.17-.1,1.17-.1l.14.14v1.11s-.69.18-1.56.18c-1.52,0-2.49-.87-2.49-2.69v-5.72Z"/>
        <path class="cls-2" d="M568.81,174.57h-5.28v1.44c0,1.46,1.09,1.64,2.22,1.64,1.27,0,2.55-.2,2.55-.2l.14.14v1.23s-1.34.2-3.01.2-3.38-.47-3.38-2.73v-4.29c0-2.2,1.78-2.89,3.58-2.89s3.56.55,3.56,2.89c0,1.07-.14,2.12-.18,2.37l-.2.2ZM563.53,172.15v1.15h4.04c.02-.12.1-.69.1-1.35-.02-1.17-.97-1.48-2.04-1.48s-2.1.28-2.1,1.68Z"/>
        <path class="cls-2" d="M577.75,170.71s-1.21-.2-2.49-.2c-1.13,0-2.22.18-2.22,1.64v3.86c0,1.46,1.09,1.64,2.22,1.64,1.27,0,2.49-.2,2.49-.2l.14.14v1.23s-1.27.2-2.95.2-3.38-.47-3.38-2.73v-4.43c0-2.26,1.76-2.75,3.38-2.75s2.95.2,2.95.2v1.25l-.14.14Z"/>
        <path class="cls-2" d="M581.73,165.48v3.96l-.04,1.09h.08s.81-1.42,2.85-1.42c1.54,0,2.77.57,2.77,2.81v6.9h-1.48v-6.83c0-1.19-.73-1.52-1.64-1.52-.85,0-1.44.22-2.55,1.31v7.04h-1.48v-13.35h1.48Z"/>
        <path class="cls-2" d="M597.5,178.82h-1.48v-6.83c0-1.25-.73-1.52-1.68-1.52-.69,0-1.5.18-2.51,1.31v7.04h-1.48v-9.5h1.33l.14.14-.04,1.07h.08s.81-1.42,2.85-1.42c1.54,0,2.77.55,2.77,2.81v6.9Z"/>
        <path class="cls-2" d="M607.41,176.17c0,2.35-1.76,2.85-3.56,2.85s-3.58-.65-3.58-2.85v-4.19c0-2.2,1.78-2.87,3.58-2.87s3.56.53,3.56,2.87v4.19ZM605.94,172.13c0-1.29-1.01-1.66-2.08-1.66-1.19,0-2.1.4-2.1,1.66v3.9c0,1.31,1.03,1.66,2.1,1.66,1.19,0,2.08-.4,2.08-1.66v-3.9Z"/>
        <path class="cls-2" d="M611.66,165.48v13.35h-1.48v-13.35h1.48Z"/>
        <path class="cls-2" d="M621.57,176.17c0,2.35-1.76,2.85-3.56,2.85s-3.58-.65-3.58-2.85v-4.19c0-2.2,1.78-2.87,3.58-2.87s3.56.53,3.56,2.87v4.19ZM620.09,172.13c0-1.29-1.01-1.66-2.08-1.66-1.19,0-2.1.4-2.1,1.66v3.9c0,1.31,1.03,1.66,2.1,1.66,1.19,0,2.08-.4,2.08-1.66v-3.9Z"/>
        <path class="cls-2" d="M631.07,173.54c0,2.35-1.76,2.85-3.56,2.85-.26,0-.51,0-.75-.02-.2,1.01.04,1.31.77,1.31,2.33,0,3.68.1,3.68,2.35s-1.92,2.43-3.64,2.43-3.44-.2-3.44-.2v-1.17l.14-.14s1.76.2,3.03.2c1.44,0,2.43-.14,2.43-1.11,0-1.19-1.56-1.09-2.77-1.09-1.82,0-1.72-1.25-1.29-2.83-1.01-.36-1.74-1.13-1.74-2.57v-1.56c0-2.2,1.78-2.87,3.58-2.87.87,0,1.76.12,2.41.55l2.37-.47.14.14v1.13h-1.7c.2.38.34.89.34,1.52v1.56ZM629.59,172.13c0-1.25-.89-1.66-2.08-1.66s-2.1.32-2.1,1.5v1.52c0,1.25.91,1.58,2.1,1.58,1.11,0,2.08-.32,2.08-1.5v-1.44Z"/>
        <path class="cls-2" d="M641.38,179.65c0,2.26-1.76,2.81-3.38,2.81s-3.22-.2-3.22-.2v-1.25l.14-.14s1.48.2,2.75.2c1.13,0,2.22-.24,2.22-1.7v-.77l.04-.99h-.08s-.81,1.42-2.85,1.42c-1.54,0-2.77-.53-2.77-2.79v-6.92h1.48v6.86c0,1.23.75,1.52,1.68,1.52.81,0,1.42-.24,2.51-1.31v-7.06h1.48v10.33Z"/>
      </g>
    </g>
  </g>
</svg>