<svg width="32" height="24" viewBox="0 0 32 24" fill="none" xmlns="http://www.w3.org/2000/svg">
<g clip-path="url(#clip0_84_17195)">
<path d="M4 12.0002C4 5.37287 9.37262 0.000244141 16 0.000244141C22.6274 0.000244141 28 5.37287 28 12.0002C27.4783 12.0002 16 13.5654 16 13.5654L4 12.0002Z" fill="#D80027"/>
<path d="M28 12.0005C28 18.6279 22.6274 24.0005 16 24.0005C9.37262 24.0005 4 18.6279 4 12.0005" fill="black"/>
<rect y="0.000244141" width="32" height="24" fill="#D9D9D9"/>
<rect y="0.000244141" width="32" height="12" fill="#D80027"/>
<rect y="12.0002" width="32" height="12" fill="black"/>
<path d="M14.3535 9.5439L15.3708 10.2822L14.9831 11.4779L15.9997 10.7384L17.017 11.4766L16.6279 10.2813L17.6443 9.54193L16.3874 9.54268L15.9982 8.34741L15.6105 9.5431L14.3535 9.5439Z" fill="#FFDA44"/>
<path d="M18.9994 6.80356C18.0538 6.25761 17.0199 5.99994 15.9994 6.00172V7.56659C16.7537 7.56523 17.5178 7.75555 18.2168 8.15914C20.3345 9.38183 21.0627 12.0995 19.84 14.2172C18.6173 16.3349 15.8998 17.0631 13.782 15.8404C13.165 15.4842 12.667 15.0005 12.2999 14.4424L10.9932 15.3051C11.4899 16.0602 12.1647 16.714 12.9994 17.1958C15.8646 18.8501 19.5413 17.8649 21.1955 14.9997C22.8497 12.1345 21.8646 8.45778 18.9994 6.80356Z" fill="#FFDA44"/>
<path d="M12.539 10.9563C12.1241 11.7147 12.4027 12.6658 13.161 13.0807L18.2446 15.8585C17.8989 16.4904 18.0825 17.2596 18.7144 17.6053L20.0876 18.3564C20.7195 18.7022 21.5122 18.4701 21.8579 17.8381L22.6091 16.4649L12.539 10.9563Z" fill="#FFDA44"/>
</g>
<defs>
<clipPath id="clip0_84_17195">
<rect width="32" height="24" fill="white" transform="translate(0 0.000244141)"/>
</clipPath>
</defs>
</svg>
